<mxfile host="app.diagrams.net" agent="Mozilla/5.0 (Windows NT 10.0; Win64; x64) AppleWebKit/537.36 (KHTML, like Gecko) Chrome/126.0.0.0 Safari/537.36" version="24.7.4" pages="2">
  <diagram name="Activity Diagram" id="Z4ca4VYB49yBxvEMN9jq">
    <mxGraphModel dx="2327" dy="794" grid="1" gridSize="10" guides="1" tooltips="1" connect="1" arrows="1" fold="1" page="1" pageScale="1" pageWidth="827" pageHeight="1169" math="0" shadow="0">
      <root>
        <mxCell id="0" />
        <mxCell id="1" parent="0" />
        <mxCell id="kr2vbpzF4lUqEdqpgC-a-1" value="" style="ellipse;whiteSpace=wrap;html=1;aspect=fixed;" vertex="1" parent="1">
          <mxGeometry x="60" y="60" width="30" height="30" as="geometry" />
        </mxCell>
        <mxCell id="kr2vbpzF4lUqEdqpgC-a-2" value="Start" style="text;html=1;whiteSpace=wrap;rounded=0;" vertex="1" parent="1">
          <mxGeometry x="60" y="90" width="50" height="30" as="geometry" />
        </mxCell>
        <mxCell id="kr2vbpzF4lUqEdqpgC-a-3" value="Choose to Make Reservation" style="rounded=1;whiteSpace=wrap;html=1;" vertex="1" parent="1">
          <mxGeometry x="-5" y="210" width="160" height="60" as="geometry" />
        </mxCell>
        <mxCell id="kr2vbpzF4lUqEdqpgC-a-4" value="Enter Date, Time, and Number of Patrons" style="rounded=1;whiteSpace=wrap;html=1;" vertex="1" parent="1">
          <mxGeometry x="-5" y="320" width="160" height="60" as="geometry" />
        </mxCell>
        <mxCell id="kr2vbpzF4lUqEdqpgC-a-5" value="Check Table Availability" style="rounded=1;whiteSpace=wrap;html=1;" vertex="1" parent="1">
          <mxGeometry x="330" y="320" width="160" height="60" as="geometry" />
        </mxCell>
        <mxCell id="kr2vbpzF4lUqEdqpgC-a-6" value="Reservation Available?" style="rhombus;whiteSpace=wrap;html=1;" vertex="1" parent="1">
          <mxGeometry x="370" y="420" width="80" height="80" as="geometry" />
        </mxCell>
        <mxCell id="kr2vbpzF4lUqEdqpgC-a-18" style="edgeStyle=orthogonalEdgeStyle;rounded=0;orthogonalLoop=1;jettySize=auto;html=1;exitX=0.5;exitY=1;exitDx=0;exitDy=0;entryX=0;entryY=0.5;entryDx=0;entryDy=0;" edge="1" parent="1" source="kr2vbpzF4lUqEdqpgC-a-7" target="kr2vbpzF4lUqEdqpgC-a-9">
          <mxGeometry relative="1" as="geometry" />
        </mxCell>
        <mxCell id="kr2vbpzF4lUqEdqpgC-a-7" value="Display Reservation Number" style="rounded=1;whiteSpace=wrap;html=1;" vertex="1" parent="1">
          <mxGeometry x="230" y="555" width="160" height="60" as="geometry" />
        </mxCell>
        <mxCell id="kr2vbpzF4lUqEdqpgC-a-19" style="edgeStyle=orthogonalEdgeStyle;rounded=0;orthogonalLoop=1;jettySize=auto;html=1;exitX=0.5;exitY=1;exitDx=0;exitDy=0;entryX=1;entryY=0.5;entryDx=0;entryDy=0;" edge="1" parent="1" source="kr2vbpzF4lUqEdqpgC-a-8" target="kr2vbpzF4lUqEdqpgC-a-9">
          <mxGeometry relative="1" as="geometry" />
        </mxCell>
        <mxCell id="kr2vbpzF4lUqEdqpgC-a-8" value="Reservation Not Available" style="rounded=1;whiteSpace=wrap;html=1;" vertex="1" parent="1">
          <mxGeometry x="470" y="550" width="160" height="60" as="geometry" />
        </mxCell>
        <mxCell id="kr2vbpzF4lUqEdqpgC-a-9" value="End" style="ellipse;whiteSpace=wrap;html=1;aspect=fixed;" vertex="1" parent="1">
          <mxGeometry x="410" y="690" width="30" height="30" as="geometry" />
        </mxCell>
        <mxCell id="kr2vbpzF4lUqEdqpgC-a-10" value="" style="edgeStyle=orthogonalEdgeStyle;rounded=0;orthogonalLoop=1;jettySize=auto;html=1;" edge="1" parent="1" source="kr2vbpzF4lUqEdqpgC-a-1" target="kr2vbpzF4lUqEdqpgC-a-3">
          <mxGeometry relative="1" as="geometry" />
        </mxCell>
        <mxCell id="kr2vbpzF4lUqEdqpgC-a-11" value="" style="edgeStyle=orthogonalEdgeStyle;rounded=0;orthogonalLoop=1;jettySize=auto;html=1;" edge="1" parent="1" source="kr2vbpzF4lUqEdqpgC-a-3" target="kr2vbpzF4lUqEdqpgC-a-4">
          <mxGeometry relative="1" as="geometry" />
        </mxCell>
        <mxCell id="kr2vbpzF4lUqEdqpgC-a-12" value="" style="edgeStyle=orthogonalEdgeStyle;rounded=0;orthogonalLoop=1;jettySize=auto;html=1;" edge="1" parent="1" source="kr2vbpzF4lUqEdqpgC-a-4" target="kr2vbpzF4lUqEdqpgC-a-5">
          <mxGeometry relative="1" as="geometry" />
        </mxCell>
        <mxCell id="kr2vbpzF4lUqEdqpgC-a-13" value="" style="edgeStyle=orthogonalEdgeStyle;rounded=0;orthogonalLoop=1;jettySize=auto;html=1;" edge="1" parent="1" source="kr2vbpzF4lUqEdqpgC-a-5" target="kr2vbpzF4lUqEdqpgC-a-6">
          <mxGeometry relative="1" as="geometry" />
        </mxCell>
        <mxCell id="kr2vbpzF4lUqEdqpgC-a-14" value="yes" style="edgeStyle=orthogonalEdgeStyle;rounded=0;orthogonalLoop=1;jettySize=auto;html=1;exitX=0;exitY=0.5;exitDx=0;exitDy=0;entryX=0.5;entryY=0;entryDx=0;entryDy=0;" edge="1" parent="1" source="kr2vbpzF4lUqEdqpgC-a-6" target="kr2vbpzF4lUqEdqpgC-a-7">
          <mxGeometry relative="1" as="geometry">
            <mxPoint x="340" y="460" as="sourcePoint" />
            <mxPoint x="300.0000000000002" y="690" as="targetPoint" />
          </mxGeometry>
        </mxCell>
        <mxCell id="kr2vbpzF4lUqEdqpgC-a-15" value="no" style="edgeStyle=orthogonalEdgeStyle;rounded=0;orthogonalLoop=1;jettySize=auto;html=1;" edge="1" parent="1" source="kr2vbpzF4lUqEdqpgC-a-6" target="kr2vbpzF4lUqEdqpgC-a-8">
          <mxGeometry relative="1" as="geometry" />
        </mxCell>
        <mxCell id="kr2vbpzF4lUqEdqpgC-a-20" value="CUSTOMER" style="swimlane;whiteSpace=wrap;html=1;" vertex="1" parent="1">
          <mxGeometry x="-60" y="20" width="270" height="740" as="geometry" />
        </mxCell>
        <mxCell id="kr2vbpzF4lUqEdqpgC-a-21" value="SYSTEM" style="swimlane;whiteSpace=wrap;html=1;" vertex="1" parent="1">
          <mxGeometry x="210" y="20" width="450" height="740" as="geometry" />
        </mxCell>
      </root>
    </mxGraphModel>
  </diagram>
  <diagram id="8Ou_HoNdnaKasmsb1xoB" name="Page-2">
    <mxGraphModel dx="1050" dy="556" grid="1" gridSize="10" guides="1" tooltips="1" connect="1" arrows="1" fold="1" page="1" pageScale="1" pageWidth="827" pageHeight="1169" math="0" shadow="0">
      <root>
        <mxCell id="0" />
        <mxCell id="1" parent="0" />
      </root>
    </mxGraphModel>
  </diagram>
</mxfile>
